<svg height="512pt" viewBox="-53 0 512 512" width="512pt" xmlns="http://www.w3.org/2000/svg"><path d="m346.671875 430.574219h-287.460937c-28.484376 0-51.574219-23.089844-51.574219-51.570313 0-28.484375 23.089843-51.574218 51.574219-51.574218h287.460937c28.484375 0 51.574219 23.089843 51.574219 51.574218 0 28.480469-23.09375 51.570313-51.574219 51.570313zm0 0" fill="#e7896e"/><path d="m7.636719 379.003906c0 28.480469 23.089843 51.574219 51.570312 51.574219h50.929688c-9.109375-19.917969-.292969-45.714844 22.664062-54.761719 19.410157-7.648437 21.84375-22.972656 21.84375-22.972656l2.957031-25.414062h-98.394531c-28.480469 0-51.570312 23.089843-51.570312 51.574218zm0 0" fill="#dd6642"/><path d="m254.601562 305.367188-86.148437 37.910156s39.953125 19.769531 69.011719 54.683594c8.890625 10.683593 25.382812 10.683593 34.273437 0 29.058594-34.914063 69.011719-54.683594 69.011719-54.683594zm0 0" fill="#f9ee80"/><path d="m405.617188 307.414062c-5.542969-48.296874-49.085938-69.519531-49.085938-69.519531h-307.183594s-43.542968 21.222657-49.085937 69.519531c-4.957031 43.199219 61.664062 61.058594 92.777343 29.21875 5.050782-5.167968 13.300782-5.324218 18.371094-.179687 7.777344 7.890625 21.300782 16.390625 43.234375 16.390625 19.066407 0 30.898438-7.660156 38.070313-15.742188 5.40625-6.089843 15.042968-6.089843 20.449218 0 7.175782 8.085938 19.003907 15.742188 38.070313 15.742188 21.933594 0 35.457031-8.5 43.234375-16.390625 5.070312-5.144531 13.320312-4.988281 18.371094.179687 31.113281 31.839844 97.734375 13.980469 92.777344-29.21875zm0 0" fill="#73da8c"/><path d="m170.5625 237.894531h-121.214844s-43.542968 21.222657-49.085937 69.519531c-4.957031 43.199219 61.664062 61.058594 92.777343 29.21875 5.050782-5.167968 13.300782-5.324218 18.371094-.179687 7.777344 7.890625 21.300782 16.390625 43.234375 16.390625 0 0-22.859375-61.84375 15.917969-114.949219zm0 0" fill="#29ce69"/><path d="m353.746094 266.566406h-301.613282c-49.429687 0-49.429687-49.429687-49.429687-49.429687 0-110.589844 89.648437-200.238281 200.238281-200.238281 110.585938 0 200.234375 89.648437 200.234375 200.238281 0 0 0 49.429687-49.429687 49.429687zm0 0" fill="#ffc7a4"/><path d="m125.882812 199.667969c-43.273437-59.457031-1.757812-166.550781-1.707031-166.683594-71.425781 30.59375-121.472656 101.53125-121.472656 184.152344 0 0 0 49.429687 49.429687 49.429687h157.527344c-27.671875-22.757812-55.792968-28.449218-83.777344-66.898437zm0 0" fill="#ffaa75"/><path d="m7.996094 470.945312c10.242187 24.988282 32.851562 41.054688 57.777344 41.054688h274.175781c24.925781 0 47.535156-16.066406 57.78125-41.054688 0 0 19.5-40.371093-23.71875-40.371093h-342.296875c-42.78125 0-23.71875 40.371093-23.71875 40.371093zm0 0" fill="#ffc7a4"/><path d="m87.316406 470.945312s-19.058594-40.371093 23.71875-40.371093h-79.320312c-42.78125 0-23.71875 40.371093-23.71875 40.371093 10.242187 24.988282 32.851562 41.054688 57.777344 41.054688h79.320312c-24.921875 0-47.535156-16.066406-57.777344-41.054688zm0 0" fill="#ffaa75"/><g fill="#ffe4d3"><path d="m133.527344 128.007812c0 9.332032-7.566406 16.898438-16.898438 16.898438-9.332031 0-16.898437-7.566406-16.898437-16.898438 0-9.335937 7.566406-16.902343 16.898437-16.902343 9.332032 0 16.898438 7.566406 16.898438 16.902343zm0 0"/><path d="m283.511719 100.675781c0 9.332031-7.566407 16.898438-16.902344 16.898438-9.332031 0-16.898437-7.566407-16.898437-16.898438s7.566406-16.898437 16.898437-16.898437c9.335937 0 16.902344 7.566406 16.902344 16.898437zm0 0"/><path d="m219.839844 16.898438c0 9.332031-7.566406 16.898437-16.898438 16.898437-9.335937 0-16.902344-7.566406-16.902344-16.898437 0-9.332032 7.566407-16.898438 16.902344-16.898438 9.332032 0 16.898438 7.566406 16.898438 16.898438zm0 0"/><path d="m66.488281 94.207031c0 9.335938-7.566406 16.898438-16.898437 16.898438-9.332032 0-16.898438-7.5625-16.898438-16.898438 0-9.332031 7.566406-16.898437 16.898438-16.898437 9.332031 0 16.898437 7.566406 16.898437 16.898437zm0 0"/><path d="m373.191406 94.207031c0 9.335938-7.566406 16.898438-16.902344 16.898438-9.332031 0-16.898437-7.5625-16.898437-16.898438 0-9.332031 7.566406-16.898437 16.898437-16.898437 9.335938 0 16.902344 7.566406 16.902344 16.898437zm0 0"/><path d="m185.351562 69.253906c0 9.332032-7.566406 16.898438-16.898437 16.898438s-16.898437-7.566406-16.898437-16.898438c0-9.332031 7.566406-16.898437 16.898437-16.898437s16.898437 7.566406 16.898437 16.898437zm0 0"/></g><path d="m145.4375 214.347656c0-9.351562-9.519531-16.933594-21.261719-16.933594-11.746093 0-21.265625 7.582032-21.265625 16.933594 0 9.351563 9.519532 16.933594 21.265625 16.933594 11.742188 0 21.261719-7.582031 21.261719-16.933594zm0 0" fill="#ff83b4"/><path d="m302.96875 214.347656c0-9.351562-9.519531-16.933594-21.261719-16.933594-11.746093 0-21.265625 7.582032-21.265625 16.933594 0 9.351563 9.519532 16.933594 21.265625 16.933594 11.742188 0 21.261719-7.582031 21.261719-16.933594zm0 0" fill="#ff83b4"/><path d="m208.21875 196.046875c-1.734375 2.542969-4.253906 2.847656-5.277344 2.847656-1.027344 0-3.589844-.277343-5.277344-2.847656-2.34375-3.566406-7.136718-4.558594-10.703124-2.214844-3.566407 2.34375-4.554688 7.132813-2.214844 10.699219 4.039062 6.148438 10.839844 9.816406 18.195312 9.816406 7.351563 0 14.152344-3.667968 18.191406-9.816406 2.34375-3.566406 1.351563-8.355469-2.214843-10.699219-1.308594-.859375-7.089844-3.082031-10.699219 2.214844zm0 0" fill="#454545"/><path d="m141.726562 199.667969c-.960937-.804688-1.921874-1.019531-2.460937-1.019531-.535156 0-1.570313.132812-2.457031 1.019531-3.019532 3.015625-7.910156 3.015625-10.925782 0-3.019531-3.019531-3.019531-7.910157 0-10.929688 3.574219-3.574219 8.328126-5.542969 13.382813-5.542969 5.058594 0 9.8125 1.96875 13.386719 5.542969 3.019531 3.019531 3.019531 7.910157 0 10.929688-1.507813 1.507812-6.046875 4.082031-10.925782 0zm0 0" fill="#454545"/><path d="m269.070312 199.667969c-.960937-.804688-1.921874-1.019531-2.460937-1.019531-.535156 0-1.570313.132812-2.457031 1.019531-3.019532 3.015625-7.910156 3.015625-10.925782 0-3.019531-3.019531-3.019531-7.910157-.003906-10.929688 3.578125-3.574219 8.332032-5.542969 13.386719-5.542969 5.058594 0 9.8125 1.96875 13.386719 5.542969 3.019531 3.019531 3.019531 7.910157 0 10.929688-1.507813 1.507812-6.046875 4.082031-10.925782 0zm0 0" fill="#454545"/></svg>